<?xml version="1.0" encoding="utf-8"?>
<svg xmlns="http://www.w3.org/2000/svg" viewBox="0 0 500 500">
  <g transform="matrix(1, 0, 0, 1, 1.465395, 92.356644)">
    <path d="M 180.186 65.295 C 184.789 65.295 189.392 65.295 194.135 65.295 C 194.148 79.885 194.161 94.476 194.167 109.066 C 194.173 115.838 194.173 122.61 194.186 129.389 C 194.192 135.292 194.192 141.196 194.192 147.093 C 194.199 150.225 194.199 153.351 194.205 156.477 C 194.205 159.42 194.205 162.362 194.205 165.297 C 194.205 166.382 194.211 167.46 194.211 168.544 C 194.211 170.016 194.211 171.493 194.211 172.963 C 194.211 173.788 194.211 174.612 194.211 175.462 C 194.148 177.136 194.003 178.481 193.502 180.066 C 193.907 179.647 194.313 179.229 194.732 178.798 C 195.378 178.163 196.025 177.529 196.672 176.896 C 197.071 176.49 197.471 176.084 197.883 175.665 C 205.067 168.773 213.082 167.707 222.6 167.84 C 229.931 168.113 236.467 170.751 241.534 176.065 C 245.941 181.371 246.867 187.414 246.835 194.079 C 246.835 194.656 246.835 195.233 246.835 195.83 C 246.835 197.725 246.835 199.621 246.829 201.517 C 246.829 202.836 246.823 204.155 246.823 205.474 C 246.823 208.936 246.816 212.398 246.81 215.86 C 246.804 219.398 246.797 222.936 246.797 226.474 C 246.791 233.405 246.778 240.342 246.766 247.28 C 242.371 247.28 237.977 247.28 233.45 247.28 C 233.437 245.758 233.424 244.242 233.411 242.676 C 233.367 237.635 233.322 232.594 233.265 227.553 C 233.233 224.496 233.208 221.44 233.184 218.391 C 233.158 215.435 233.126 212.487 233.095 209.532 C 233.082 208.409 233.076 207.287 233.069 206.165 C 233.291 194.307 233.291 194.307 228.376 183.87 C 224.281 179.875 219.709 179.818 214.318 179.831 C 209.278 179.939 205.772 181.239 201.548 183.946 C 194.383 191.612 194.485 203.191 194.447 213.096 C 194.434 214.091 194.421 215.087 194.409 216.082 C 194.383 218.663 194.364 221.243 194.345 223.824 C 194.326 226.474 194.294 229.125 194.269 231.769 C 194.211 236.943 194.173 242.112 194.135 247.28 C 189.532 247.28 184.928 247.28 180.186 247.28 C 180.186 187.225 180.186 127.17 180.186 65.295 Z" style="stroke-width: 1; fill: rgb(255, 255, 255);"/>
    <path d="M 135.878 168.336 C 138.573 168.799 141.249 168.806 143.976 168.85 C 144.579 168.863 145.174 168.881 145.796 168.894 C 147.711 168.932 149.619 168.97 151.534 169.008 C 152.834 169.034 154.134 169.065 155.428 169.091 C 158.611 169.161 161.788 169.224 164.971 169.287 C 164.971 172.008 164.971 174.728 164.971 177.531 C 160.577 178.158 156.182 178.786 151.655 179.433 C 152.15 180.346 152.644 181.266 153.157 182.203 C 156.639 189.255 156.822 196.439 154.508 203.965 C 151.744 210.688 146.893 214.226 140.57 217.237 C 134.699 219.527 129.379 219.584 123.133 219.514 C 118.707 219.527 118.707 219.527 115.061 221.765 C 113.178 224.422 112.614 226.299 112.975 229.526 C 114.395 231.84 116.114 232.373 118.669 233.071 C 120.945 233.534 123.21 233.521 125.524 233.527 C 126.601 233.54 127.68 233.559 128.758 233.572 C 130.432 233.591 132.106 233.61 133.779 233.616 C 143.361 233.698 151.376 234.167 159.061 240.426 C 161.864 243.831 164.045 247.889 164.336 252.353 C 164.387 253.108 164.438 253.868 164.495 254.648 C 164.393 260.292 162.757 265.676 159.264 270.108 C 158.972 270.482 158.681 270.856 158.382 271.243 C 151.47 279.112 139.429 281.388 129.461 282.156 C 118.219 282.669 105.715 282.536 96.489 275.18 C 92.641 271.579 90.408 268.206 89.971 262.917 C 89.781 255.91 90.84 251.82 95.646 246.672 C 98.842 243.856 102.722 242.487 106.634 240.94 C 106.101 240.503 106.101 240.503 105.569 240.059 C 105.107 239.666 104.65 239.279 104.175 238.879 C 103.718 238.493 103.261 238.112 102.792 237.719 C 100.998 235.943 100.37 234.7 100.097 232.183 C 100.072 225.373 100.072 225.373 102.196 222.551 C 106.78 218.036 106.78 218.036 109.17 216.844 C 108.714 216.559 108.264 216.274 107.801 215.976 C 102.006 212.088 98.487 207.713 96.489 200.992 C 95.164 193.845 95.474 185.755 99.501 179.471 C 100.161 178.595 100.852 177.733 101.562 176.897 C 101.886 176.491 102.209 176.092 102.545 175.673 C 107.395 170.245 114.909 168.146 121.954 167.442 C 126.456 167.296 131.497 167.302 135.878 168.336 Z M 113.134 182.521 C 109.392 187.714 109.773 194.644 110.686 200.763 C 111.923 204.815 115.397 207.466 118.954 209.47 C 124.636 210.858 130.356 210.826 135.72 208.202 C 139.309 205.475 141.211 201.955 141.997 197.529 C 142.505 191.715 141.921 186.11 138.339 181.336 C 134.852 178.114 130.571 177.195 125.974 176.738 C 120.629 177.271 116.938 178.538 113.134 182.521 Z M 106.235 250.717 C 103.369 254.021 103.121 257.083 103.236 261.326 C 103.635 264.541 105.189 266.145 107.427 268.327 C 115.119 273.393 125.707 272.828 134.452 271.294 C 140.019 270.006 145.434 268.314 148.916 263.526 C 150.919 260.013 151.306 257.21 150.622 253.184 C 149.347 250.122 147.813 248.448 144.756 247.122 C 139.594 245.879 134.452 245.873 129.176 245.86 C 127.73 245.854 126.285 245.835 124.839 245.815 C 118.168 245.766 111.269 245.753 106.235 250.717 Z" style="stroke-width: 1; fill: rgb(255, 255, 255);"/>
    <path d="M 288.616 32.953 C 293.219 32.953 297.822 32.953 302.565 32.953 C 302.578 38.393 302.591 43.828 302.597 49.256 C 302.603 51.785 302.603 54.309 302.616 56.827 C 302.622 59.262 302.622 61.7 302.622 64.135 C 302.629 65.06 302.629 65.992 302.635 66.925 C 302.635 68.224 302.635 69.518 302.635 70.818 C 302.642 71.56 302.642 72.301 302.642 73.062 C 302.565 74.806 302.565 74.806 301.932 76.075 C 302.35 75.643 302.769 75.212 303.2 74.768 C 303.834 74.141 304.467 73.519 305.102 72.904 C 305.47 72.543 305.837 72.188 306.218 71.819 C 313.497 65.066 321.214 63.653 330.814 63.868 C 338.132 64.178 344.574 66.417 349.685 71.757 C 356.717 80.241 356.013 91.571 355.956 101.984 C 355.95 103.182 355.95 104.381 355.95 105.573 C 355.944 108.699 355.931 111.818 355.918 114.944 C 355.906 118.14 355.899 121.336 355.893 124.532 C 355.88 130.784 355.855 137.037 355.829 143.288 C 351.225 143.288 346.622 143.288 341.88 143.288 C 341.873 141.735 341.861 140.181 341.854 138.577 C 341.822 133.416 341.778 128.254 341.727 123.099 C 341.702 119.973 341.676 116.847 341.657 113.72 C 341.644 110.696 341.619 107.677 341.587 104.653 C 341.574 103.505 341.568 102.358 341.562 101.21 C 341.746 90.069 341.746 90.069 337.32 80.158 C 333.477 76.347 329.794 75.89 324.563 75.796 C 318.582 75.828 313.408 76.988 308.906 81.147 C 303.073 90.36 303.124 100.221 302.997 110.779 C 302.984 111.723 302.971 112.662 302.958 113.607 C 302.927 116.061 302.895 118.521 302.863 120.974 C 302.832 123.492 302.794 126.009 302.762 128.527 C 302.692 133.447 302.629 138.367 302.565 143.288 C 297.962 143.288 293.358 143.288 288.616 143.288 C 288.616 106.878 288.616 70.469 288.616 32.953 Z" style="stroke-width: 1; fill: rgb(255, 255, 255);"/>
    <path d="M 429.384 136.948 C 433.988 136.948 438.591 136.948 443.334 136.948 C 443.347 142.198 443.36 147.442 443.366 152.692 C 443.372 155.127 443.372 157.562 443.385 159.997 C 443.392 162.349 443.392 164.702 443.392 167.054 C 443.397 167.955 443.397 168.849 443.403 169.742 C 443.403 171.004 443.403 172.26 443.403 173.515 C 443.41 174.232 443.41 174.948 443.41 175.684 C 443.347 177.263 443.163 178.562 442.7 180.066 C 443.105 179.647 443.511 179.229 443.93 178.798 C 444.577 178.163 445.224 177.529 445.87 176.896 C 446.269 176.49 446.669 176.084 447.081 175.665 C 454.266 168.773 462.281 167.707 471.798 167.84 C 479.129 168.113 485.666 170.751 490.732 176.065 C 495.139 181.371 496.065 187.414 496.034 194.079 C 496.034 194.656 496.034 195.233 496.034 195.83 C 496.034 197.725 496.034 199.621 496.027 201.517 C 496.027 202.836 496.021 204.155 496.021 205.474 C 496.021 208.936 496.015 212.398 496.008 215.86 C 496.002 219.398 495.995 222.936 495.995 226.474 C 495.989 233.405 495.976 240.342 495.964 247.28 C 491.57 247.28 487.175 247.28 482.648 247.28 C 482.635 245.758 482.622 244.242 482.61 242.676 C 482.565 237.635 482.521 232.594 482.463 227.553 C 482.433 224.496 482.407 221.44 482.382 218.391 C 482.356 215.435 482.324 212.487 482.293 209.532 C 482.28 208.409 482.274 207.287 482.267 206.165 C 482.489 194.307 482.489 194.307 477.575 183.87 C 473.479 179.875 468.907 179.818 463.518 179.831 C 458.476 179.939 454.97 181.239 450.746 183.946 C 443.581 191.612 443.683 203.191 443.645 213.096 C 443.632 214.091 443.619 215.087 443.607 216.082 C 443.581 218.663 443.562 221.243 443.543 223.824 C 443.524 226.474 443.492 229.125 443.467 231.769 C 443.41 236.943 443.372 242.112 443.334 247.28 C 438.73 247.28 434.127 247.28 429.384 247.28 C 429.384 210.87 429.384 174.461 429.384 136.948 Z" style="stroke-width: 1; fill: rgb(255, 255, 255);"/>
    <path d="M 51.463 65.929 C 51.926 66.1 52.388 66.265 52.863 66.443 C 57.347 68.37 60.986 71.876 63.117 76.271 C 65.888 83.804 65.578 91.483 65.539 99.384 C 65.533 100.652 65.533 101.927 65.533 103.195 C 65.527 106.511 65.514 109.833 65.501 113.156 C 65.489 116.548 65.482 119.947 65.476 123.34 C 65.463 129.991 65.438 136.637 65.412 143.288 C 62.064 143.288 58.717 143.288 55.267 143.288 C 54.639 140.993 54.639 140.993 53.998 138.654 C 53.802 137.93 53.802 137.93 53.599 137.201 C 53.105 135.369 52.731 133.784 52.731 131.874 C 52.122 132.503 52.122 132.503 51.501 133.143 C 50.86 133.777 50.207 134.411 49.56 135.045 C 49.148 135.45 48.73 135.856 48.305 136.275 C 40.962 143.148 33.372 144.962 23.505 144.714 C 20.145 144.499 17.196 143.84 14.051 142.655 C 13.595 142.489 13.144 142.33 12.675 142.166 C 8.217 140.282 4.66 136.427 2.675 132.033 C 0.525 125.457 0.323 117.627 3.062 111.203 C 4.482 108.635 6.207 106.606 8.344 104.609 C 8.661 104.311 8.978 104.013 9.307 103.702 C 14.729 99.282 22.485 97.773 29.269 97 C 29.865 96.93 30.468 96.86 31.082 96.783 C 37.855 96.137 44.672 96.309 51.463 96.366 C 51.52 86.994 51.52 86.994 47.411 78.884 C 43.257 75.072 38.172 75.072 32.864 75.193 C 28.071 75.472 23.626 77.045 19.124 78.611 C 17.951 78.992 16.771 79.378 15.598 79.759 C 14.876 80.006 14.158 80.26 13.417 80.513 C 12.764 79.073 12.116 77.634 11.476 76.195 C 11.287 75.783 11.102 75.377 10.905 74.959 C 9.543 71.851 9.543 71.851 10.246 69.734 C 11.768 68.997 13.214 68.396 14.806 67.831 C 15.269 67.667 15.725 67.501 16.2 67.331 C 27.119 63.526 40.365 61.694 51.463 65.929 Z M 20.075 110.473 C 16.327 114.595 15.554 118.058 15.75 123.638 C 16.112 127.055 17.203 128.685 19.599 131.082 C 23.968 134.107 28.553 134.196 33.708 133.777 C 39.396 132.73 44.494 130.176 48.089 125.559 C 52.204 119.206 51.735 112.515 51.463 105.242 C 35.008 104.672 35.008 104.672 20.075 110.473 Z" style="stroke-width: 1; fill: rgb(255, 255, 255);"/>
    <path d="M 323.923 173.306 C 332.611 179.533 337.024 188.264 338.907 198.695 C 340.556 211.783 339.135 225.46 331.057 236.303 C 325.147 243.367 317.386 247.343 308.274 248.548 C 297.495 249.422 287.799 247.539 279.118 240.723 C 270.527 232.841 267.115 222.125 266.469 210.693 C 266.101 199.938 267.831 188.689 274.667 180.066 C 274.94 179.679 275.219 179.292 275.504 178.893 C 286.278 164.841 310.006 164.619 323.923 173.306 Z M 286.715 185.773 C 280.482 194.44 279.917 206 281.325 216.292 C 282.568 223.323 284.718 229.468 290.519 233.964 C 296.118 237.463 302.308 237.907 308.775 236.843 C 313.962 235.479 317.621 232.949 320.519 228.416 C 325.972 218.555 326.2 205.449 323.473 194.681 C 321.514 188.525 318.794 184.536 313.259 181.131 C 304.825 177.015 292.91 178.513 286.715 185.773 Z" style="stroke-width: 1; fill: rgb(255, 255, 255);"/>
    <path d="M 146.539 68.307 C 151.884 72.231 154.471 77.66 155.797 84.07 C 156.152 86.696 156.171 89.244 156.165 91.889 C 156.165 92.446 156.165 93.005 156.165 93.581 C 156.165 95.408 156.158 97.24 156.152 99.073 C 156.152 100.348 156.152 101.622 156.152 102.896 C 156.145 106.245 156.139 109.593 156.133 112.934 C 156.126 116.352 156.126 119.769 156.12 123.188 C 156.114 129.89 156.101 136.586 156.088 143.288 C 151.484 143.288 146.881 143.288 142.139 143.288 C 142.132 141.646 142.12 140.003 142.113 138.317 C 142.081 132.877 142.037 127.442 141.992 122.008 C 141.961 118.711 141.935 115.42 141.922 112.122 C 141.903 108.939 141.878 105.756 141.846 102.573 C 141.833 101.362 141.827 100.151 141.821 98.94 C 141.821 97.24 141.802 95.535 141.777 93.836 C 141.783 93.341 141.783 92.846 141.783 92.333 C 141.707 87.901 140.648 84.089 138.295 80.316 C 133.527 75.954 128.093 75.58 121.892 75.834 C 118.575 76.075 115.83 76.899 112.97 78.611 C 112.558 78.858 112.146 79.105 111.714 79.359 C 106.959 82.789 105.443 88.851 104.371 94.356 C 103.781 98.623 103.864 102.947 103.832 107.247 C 103.82 108.293 103.807 109.332 103.794 110.379 C 103.762 113.105 103.737 115.825 103.712 118.552 C 103.686 121.343 103.654 124.133 103.623 126.916 C 103.559 132.375 103.509 137.829 103.458 143.288 C 98.854 143.288 94.251 143.288 89.508 143.288 C 89.508 117.551 89.508 91.813 89.508 65.295 C 93.065 65.295 96.623 65.295 100.288 65.295 C 101.232 68.13 101.746 69.968 101.955 72.822 C 101.999 73.436 102.05 74.052 102.095 74.679 C 102.145 75.371 102.145 75.371 102.19 76.075 C 102.817 75.428 102.817 75.428 103.458 74.768 C 104.092 74.141 104.727 73.519 105.36 72.904 C 105.728 72.543 106.103 72.188 106.477 71.819 C 117.054 62.01 134.269 60.882 146.539 68.307 Z" style="stroke-width: 1; fill: rgb(255, 255, 255);"/>
    <path d="M 268.324 69.099 C 267.215 72.568 266.004 75.922 264.52 79.245 C 260.792 78.896 257.411 77.831 253.854 76.67 C 247.571 74.819 238.851 74.109 232.651 76.734 C 230.698 77.812 229.619 78.63 228.376 80.513 C 227.889 83.379 227.927 85.814 229.087 88.496 C 230.59 90.43 232.27 91.312 234.438 92.32 C 235.086 92.637 235.086 92.637 235.745 92.954 C 240.723 95.325 245.833 97.412 250.95 99.46 C 258.312 102.478 264.767 105.902 268.838 112.927 C 271.044 118.267 270.835 124.297 268.978 129.713 C 266.244 136.117 262.041 139.427 255.763 142.179 C 242.498 147.023 226.659 145.298 213.793 140.118 C 213.793 136.142 213.793 132.167 213.793 128.07 C 216.836 128.578 219.246 129.224 222.112 130.251 C 231.528 133.478 241.654 134.74 251.204 131.241 C 253.512 129.813 254.615 128.64 255.643 126.168 C 256.068 123.156 255.96 120.575 254.768 117.766 C 250.38 113.169 244.343 111.127 238.592 108.705 C 218.84 100.38 218.84 100.38 215.061 92.561 C 212.829 86.828 213.374 81.053 215.695 75.44 C 218.092 70.418 222.873 67.818 227.832 65.72 C 240.64 61.573 256.359 63.012 268.324 69.099 Z" style="stroke-width: 1; fill: rgb(255, 255, 255);"/>
    <path d="M 383.73 167.78 C 384.858 167.78 384.858 167.78 386.012 167.78 C 394.065 167.888 400.964 169.575 408.459 172.46 C 408.193 176.575 406.614 179.644 404.655 183.239 C 401.179 182.732 397.983 181.743 394.649 180.658 C 388.105 178.756 379.132 178.084 372.715 180.747 C 370.401 182.06 369.341 183.271 368.511 185.776 C 368.27 188.331 368.34 189.859 369.462 192.193 C 373.774 197.151 380.356 199.029 386.31 201.381 C 404.952 208.793 404.952 208.793 409.41 216.801 C 411.439 222.026 411.242 229.084 409.372 234.322 C 406.423 240.371 401.566 244.417 395.244 246.648 C 382.29 250.339 366.857 249.769 354.561 244.112 C 354.561 240.137 354.561 236.16 354.561 232.065 C 356.685 232.49 358.613 232.926 360.661 233.567 C 361.2 233.732 361.745 233.903 362.303 234.075 C 363.426 234.423 364.548 234.772 365.671 235.121 C 373.248 237.448 382.442 238.71 390.07 235.869 C 393.285 234.081 395.244 232.401 396.411 228.893 C 396.653 225.653 396.341 223.948 394.509 221.284 C 394.509 220.866 394.509 220.447 394.509 220.016 C 394.02 219.769 394.02 219.769 393.519 219.522 C 392.321 218.919 391.122 218.305 389.93 217.689 C 385.251 215.292 380.547 213.093 375.683 211.095 C 359.076 204.228 359.076 204.228 355.551 196.872 C 353.56 191.216 353.591 184.381 356.178 178.933 C 360.173 172.821 366.882 169.726 373.825 168.268 C 377.116 167.774 380.407 167.774 383.73 167.78 Z" style="stroke-width: 1; fill: rgb(255, 255, 255);"/>
    <path d="M 192.114 36.599 C 194.099 38 194.587 38.412 195.405 40.562 C 195.766 43.46 195.76 46.078 194.612 48.774 C 193.014 50.65 191.803 51.849 189.305 52.229 C 183.148 52.178 183.148 52.178 180.821 50.079 C 178.868 46.985 179.16 43.447 179.553 39.928 C 180.688 37.823 181.506 37.088 183.554 35.927 C 186.705 35.128 189.217 35.071 192.114 36.599 Z" style="stroke-width: 1; fill: rgb(255, 255, 255);"/>
  </g>
</svg>